<?xml version="1.0" encoding="UTF-8"?>
<svg version="1.1" xmlns="http://www.w3.org/2000/svg" width="1219" height="204">
<path d="M0 0 C6.25749562 4.36945815 10.60563435 8.53358715 14.21875 15.2734375 C14.99992187 16.65208984 14.99992187 16.65208984 15.796875 18.05859375 C17.40979662 21.70539181 18.02488976 25.1638966 18.46875 29.0859375 C18.55898437 29.76591797 18.64921875 30.44589844 18.7421875 31.14648438 C18.95277528 32.84986778 19.09211571 34.56176405 19.21875 36.2734375 C18.21875 37.2734375 18.21875 37.2734375 15.53491211 37.38696289 C14.36710205 37.38172607 13.19929199 37.37648926 11.99609375 37.37109375 C10.73603516 37.36787109 9.47597656 37.36464844 8.17773438 37.36132812 C6.83723891 37.35297153 5.49674412 37.34450657 4.15625 37.3359375 C2.81185058 37.3309241 1.4674494 37.32636092 0.12304688 37.32226562 C-3.17842941 37.31043238 -6.47981803 37.29394721 -9.78125 37.2734375 C-10.07773438 36.19449219 -10.37421875 35.11554688 -10.6796875 34.00390625 C-12.08289754 29.25190061 -13.37385763 24.99606048 -17.5390625 22.015625 C-28.40255058 16.2643666 -40.9459235 15.70281196 -52.84375 18.3359375 C-58.04285717 19.94758324 -60.90963692 22.72489007 -63.78125 27.2734375 C-65.63983852 30.99061454 -65.21814228 35.21658058 -64.78125 39.2734375 C-61.88249258 45.53475353 -57.32055212 47.94358138 -51.140625 50.265625 C-44.49434982 52.46400833 -37.83527458 53.90650654 -30.96875 55.2109375 C-18.72461498 57.5413922 -7.04565594 60.84238464 4.21875 66.2734375 C4.21875 66.9334375 4.21875 67.5934375 4.21875 68.2734375 C4.95996094 68.52738281 5.70117188 68.78132813 6.46484375 69.04296875 C14.23513824 72.51480246 18.56592246 79.96778242 22.21875 87.2734375 C22.32832031 86.37882812 22.43789062 85.48421875 22.55078125 84.5625 C24.9911939 65.95187345 31.69425902 51.02854054 46.28125 38.6484375 C59.76135508 28.68091479 75.98299651 26.03875463 92.36328125 27.67578125 C105.50758426 29.71334798 118.79197775 36.85672867 127.21875 47.2734375 C132.7843297 54.9423573 137.06582104 63.0074001 139.21875 72.2734375 C139.63833984 70.94892578 139.63833984 70.94892578 140.06640625 69.59765625 C145.32400112 53.85868254 153.86153366 40.65233996 168.80078125 32.453125 C180.63097623 26.6813659 195.74431871 25.1231596 208.35546875 29.31640625 C217.83108565 33.10432198 224.16793356 37.97948946 231.21875 45.2734375 C231.54875 40.6534375 231.87875 36.0334375 232.21875 31.2734375 C241.12875 31.2734375 250.03875 31.2734375 259.21875 31.2734375 C259.21875 68.5634375 259.21875 105.8534375 259.21875 144.2734375 C253.28747786 144.93246774 247.69970995 145.43216092 241.78125 145.3984375 C240.72260742 145.40423828 240.72260742 145.40423828 239.64257812 145.41015625 C234.47243528 145.40028014 234.47243528 145.40028014 232.21875 144.2734375 C231.8046875 141.11328125 231.8046875 141.11328125 231.59375 137.2109375 C231.48160156 135.27541016 231.48160156 135.27541016 231.3671875 133.30078125 C231.31820313 132.30175781 231.26921875 131.30273438 231.21875 130.2734375 C230.88875 130.9334375 230.55875 131.5934375 230.21875 132.2734375 C229.55875 132.2734375 228.89875 132.2734375 228.21875 132.2734375 C227.86103516 133.15515625 227.86103516 133.15515625 227.49609375 134.0546875 C223.22050271 141.48140222 213.08218234 145.10983038 205.21875 147.2734375 C190.38214395 150.22110758 176.2942815 147.74095323 163.21875 140.2734375 C163.21875 139.6134375 163.21875 138.9534375 163.21875 138.2734375 C162.3834375 137.9021875 162.3834375 137.9021875 161.53125 137.5234375 C148.38073482 130.41505092 143.27350797 115.23244546 139.171875 101.78515625 C138.21875 98.2734375 138.21875 98.2734375 138.21875 95.2734375 C137.11108025 95.3800193 137.11108025 95.3800193 135.98103333 95.48875427 C126.63441382 96.30629521 117.35153478 96.40336526 107.98046875 96.37109375 C106.36237126 96.36922356 104.74427319 96.3678025 103.12617493 96.36680603 C98.91279475 96.36302812 94.69945027 96.3532395 90.48608398 96.34210205 C86.16846194 96.33178503 81.850834 96.32728659 77.53320312 96.32226562 C69.09503589 96.3116119 60.65689741 96.29459392 52.21875 96.2734375 C52.67928815 97.69758935 53.14356467 99.12053259 53.609375 100.54296875 C53.86750977 101.33550049 54.12564453 102.12803223 54.39160156 102.94458008 C56.97755475 110.22539691 61.20506655 115.52606725 68.05078125 119.27734375 C76.91777242 123.2761829 85.77521127 123.28600306 94.92578125 120.25 C99.58963537 118.26369075 102.46377734 115.62963909 104.96191406 111.14208984 C107.21875 108.2734375 107.21875 108.2734375 110.33496094 107.59228516 C112.12595215 107.6394165 112.12595215 107.6394165 113.953125 107.6875 C115.24863281 107.70683594 116.54414063 107.72617188 117.87890625 107.74609375 C119.24221165 107.7962225 120.60549289 107.84701214 121.96875 107.8984375 C123.34759865 107.92854619 124.7265099 107.95592047 126.10546875 107.98046875 C129.47814731 108.05122424 132.84765827 108.14991948 136.21875 108.2734375 C137.52185976 112.18276677 136.63798843 113.19524736 134.84375 116.8359375 C131.50445072 123.24336326 127.34799128 128.22546941 122.21875 133.2734375 C121.6309375 133.85996094 121.043125 134.44648438 120.4375 135.05078125 C109.16615055 145.49804619 94.03667028 148.62979547 79.16015625 148.484375 C68.11994051 147.89352104 58.97196055 144.20591223 49.21875 139.2734375 C49.21875 138.6134375 49.21875 137.9534375 49.21875 137.2734375 C48.538125 137.0878125 47.8575 136.9021875 47.15625 136.7109375 C37.27359528 131.87474477 30.25332461 120.12680099 26.21875 110.2734375 C25.84196665 108.61605306 25.49575918 106.95038556 25.21875 105.2734375 C25.06019531 106.10746094 24.90164062 106.94148438 24.73828125 107.80078125 C21.98547645 121.07812153 16.67742206 130.89557926 5.27734375 138.53515625 C-14.08245498 149.53785157 -39.2873872 151.32021451 -60.78125 146.2734375 C-73.5999944 142.24168576 -85.45219036 135.35242754 -92.5703125 123.60546875 C-96.75555266 115.54550626 -98.9601001 108.39479249 -98.78125 99.2734375 C-96.06723706 97.91643103 -93.93278684 98.1610514 -90.8984375 98.17578125 C-89.14853516 98.18061523 -89.14853516 98.18061523 -87.36328125 98.18554688 C-86.13996094 98.19392578 -84.91664062 98.20230469 -83.65625 98.2109375 C-82.42519531 98.21544922 -81.19414063 98.21996094 -79.92578125 98.22460938 C-76.87755608 98.2364242 -73.82942686 98.25289722 -70.78125 98.2734375 C-70.47832031 99.36527344 -70.17539063 100.45710938 -69.86328125 101.58203125 C-67.90397379 108.26631122 -64.90183017 114.42072815 -59.0546875 118.46875 C-47.87493757 124.29603278 -32.70640215 124.37603566 -20.78125 121.2734375 C-15.72312993 119.48467186 -11.93395864 117.48237583 -8.21875 113.5859375 C-5.82918495 108.07954847 -5.2938024 102.85690978 -6.40625 96.9609375 C-9.3141392 91.27733588 -14.05182916 87.8529061 -19.78125 85.2734375 C-23.79760033 84.039192 -27.86795804 83.11923232 -31.96875 82.2109375 C-34.10820295 81.7206191 -36.24752631 81.22973497 -38.38671875 80.73828125 C-39.4435083 80.49754883 -40.50029785 80.25681641 -41.58911133 80.00878906 C-58.54398277 76.10300912 -79.45620368 71.09223999 -89.63671875 55.40625 C-95.44618 44.58042801 -96.76686372 32.79410521 -93.65625 20.8359375 C-89.65888372 9.75486632 -81.58025385 1.77152286 -71.28125 -3.6640625 C-66.61551423 -5.6470002 -61.73179743 -6.70326499 -56.78125 -7.7265625 C-55.63765015 -7.98457642 -55.63765015 -7.98457642 -54.47094727 -8.24780273 C-36.50017571 -11.44655766 -15.67515684 -9.73092602 0 0 Z M59.21875 61.2734375 C54.97008436 66.79809487 54.97008436 66.79809487 53.21875 73.2734375 C72.35875 73.2734375 91.49875 73.2734375 111.21875 73.2734375 C110.3490243 68.92480899 109.2712556 66.11073057 107.21875 62.2734375 C106.55875 62.2734375 105.89875 62.2734375 105.21875 62.2734375 C105.21875 61.6134375 105.21875 60.9534375 105.21875 60.2734375 C104.55875 60.2734375 103.89875 60.2734375 103.21875 60.2734375 C103.21875 59.6134375 103.21875 58.9534375 103.21875 58.2734375 C101.66023245 57.45332438 100.09673284 56.64267537 98.53125 55.8359375 C97.66113281 55.38347656 96.79101562 54.93101563 95.89453125 54.46484375 C83.70543209 49.03758062 68.54629563 51.82856425 59.21875 61.2734375 Z M171.21875 67.2734375 C165.77365727 76.34859205 164.93574833 86.7048058 166.68359375 97.015625 C169.22181105 106.65784692 174.28440986 113.49441813 182.640625 118.8984375 C186.4516551 120.93098689 189.93638726 121.86487286 194.21875 122.2734375 C194.94835937 122.34304687 195.67796875 122.41265625 196.4296875 122.484375 C205.02502986 122.87644325 212.75799803 120.47040838 219.40625 114.98828125 C226.92823052 107.87157985 231.20978797 98.76965911 231.71875 88.3359375 C231.26327834 78.90767421 228.22566736 68.8478291 221.21875 62.2734375 C203.90117263 49.08905835 185.57919764 50.86149734 171.21875 67.2734375 Z " fill="#010101" transform="translate(106.78125,50.7265625)"/>
<path d="M0 0 C6.89859075 7.53196012 14.125 18.19455325 14.125 28.6875 C9.58443197 28.94950753 5.04580597 29.10892326 0.5 29.25 C-0.78519531 29.32541016 -2.07039062 29.40082031 -3.39453125 29.47851562 C-12.76264807 29.69694322 -12.76264807 29.69694322 -16.01782227 26.74291992 C-17.52438805 24.45144796 -18.68832456 22.15457143 -19.875 19.6875 C-25.64995151 13.64394609 -33.55591901 10.57166138 -41.875 10.1875 C-51.52947685 10.66256156 -59.36900421 14.62484147 -65.875 21.6875 C-66.37 22.6775 -66.37 22.6775 -66.875 23.6875 C-67.535 23.6875 -68.195 23.6875 -68.875 23.6875 C-69.00648438 24.3990625 -69.13796875 25.110625 -69.2734375 25.84375 C-69.875 28.6875 -69.875 28.6875 -70.6640625 31.34375 C-73.81366296 42.05827867 -73.23429376 51.45263638 -68.875 61.6875 C-68.875 62.6775 -68.875 63.6675 -68.875 64.6875 C-68.215 64.6875 -67.555 64.6875 -66.875 64.6875 C-65.78780319 65.89810834 -64.75445376 67.15740544 -63.75 68.4375 C-59.26946665 73.71146113 -53.86593529 77.02169664 -46.875 77.6875 C-36.9908556 78.38602611 -28.66812122 76.39441099 -20.875 70.0625 C-18.00724425 66.65704005 -16.03713014 62.57933425 -13.875 58.6875 C-4.635 58.6875 4.605 58.6875 14.125 58.6875 C14.125 60.0075 14.125 61.3275 14.125 62.6875 C15.19983643 62.717229 15.19983643 62.717229 16.29638672 62.74755859 C19.5313063 62.84259519 22.76556094 62.95236019 26 63.0625 C27.12792969 63.0934375 28.25585938 63.124375 29.41796875 63.15625 C30.49433594 63.19492188 31.57070312 63.23359375 32.6796875 63.2734375 C34.17218018 63.32056885 34.17218018 63.32056885 35.69482422 63.36865234 C38.125 63.6875 38.125 63.6875 40.125 65.6875 C40.62734886 66.96269326 41.08138903 68.25741875 41.5 69.5625 C43.22301941 74.30294645 45.36607665 76.60031271 49.671875 79.26171875 C54.09758627 81.08907691 57.82356551 81.20232075 62.5625 81.1875 C63.38298828 81.21585937 64.20347656 81.24421875 65.04882812 81.2734375 C70.35625427 81.2903806 73.55960474 80.34467672 77.77124023 77.09326172 C80.27525846 74.49305668 80.76076696 72.20841935 81.125 68.6875 C80.45145148 65.9933059 79.50812257 64.15736173 78.125 61.6875 C77.465 61.3575 76.805 61.0275 76.125 60.6875 C76.125 60.0275 76.125 59.3675 76.125 58.6875 C74.76181641 58.51347656 74.76181641 58.51347656 73.37109375 58.3359375 C67.93301387 57.55652952 62.56602498 56.42188268 57.1875 55.3125 C56.14142578 55.10367188 55.09535156 54.89484375 54.01757812 54.6796875 C48.12312019 53.46448813 42.68886226 51.98507705 37.125 49.6875 C35.99384766 49.23117188 35.99384766 49.23117188 34.83984375 48.765625 C26.72358419 44.98398318 21.27741974 39.070858 18.125 30.6875 C15.82895865 22.07734495 16.09576395 11.61330483 20.1953125 3.59375 C22.69181306 -0.61418804 25.5110035 -3.98381901 29.125 -7.3125 C29.75341797 -8.04146484 29.75341797 -8.04146484 30.39453125 -8.78515625 C39.10649776 -16.47449915 53.18196745 -16.35514211 64.125 -16.3125 C65.15882813 -16.3125 66.19265625 -16.3125 67.2578125 -16.3125 C79.49149085 -15.74183279 90.58222961 -10.3540466 98.8671875 -1.4375 C103.50292345 4.282214 106.79013559 10.87004569 107.4375 18.25 C107.125 20.6875 107.125 20.6875 106.125 21.6875 C104.63414635 21.78662839 103.13867548 21.81829747 101.64453125 21.8203125 C100.2687793 21.82224609 100.2687793 21.82224609 98.86523438 21.82421875 C97.89908203 21.82035156 96.93292969 21.81648438 95.9375 21.8125 C94.99068359 21.81636719 94.04386719 21.82023437 93.06835938 21.82421875 C82.83443938 21.80993554 82.83443938 21.80993554 79.125 20.6875 C78.12890625 18.98046875 78.12890625 18.98046875 77.6875 16.875 C76.66377162 13.47475932 75.79360687 12.02679842 72.6875 10.25 C66.01618688 7.32398547 59.81886251 6.56333664 52.8125 8.9375 C49.6015314 10.28484761 47.72786218 11.48177564 46.125 14.6875 C44.84346081 18.074425 45.13842646 19.74312392 46 23.3125 C48.94121024 27.98383391 51.9448676 28.33904183 57.125 29.6875 C61.27515144 30.61397796 65.44438825 31.4114583 69.625 32.1875 C84.2563767 34.90350406 97.28608021 37.89294845 106.75 50.24609375 C111.39809635 58.49910574 111.27008434 68.65467312 109.54296875 77.75390625 C106.56288085 87.32012449 100.18835553 94.3815456 91.4375 99.125 C79.33814351 104.51776874 67.15121956 105.41172504 54.125 104.6875 C53.07441406 104.62949219 52.02382812 104.57148438 50.94140625 104.51171875 C41.77841789 103.47979469 34.09971139 99.03918261 26.125 94.6875 C26.125 94.0275 26.125 93.3675 26.125 92.6875 C25.526875 92.42582031 24.92875 92.16414063 24.3125 91.89453125 C18.15480538 88.49680333 15.72593225 82.11278325 13.75 75.6875 C13.19215373 73.69195238 12.64479461 71.69329569 12.125 69.6875 C11.88265625 70.29078125 11.6403125 70.8940625 11.390625 71.515625 C9.47774621 76.0771052 7.87262641 79.36817375 4.125 82.6875 C3.03455342 83.9731672 1.95207679 85.26561162 0.875 86.5625 C-5.24744419 93.61776294 -12.86853693 98.88277063 -21.75 101.8125 C-23.23113281 102.31136719 -23.23113281 102.31136719 -24.7421875 102.8203125 C-40.6624806 107.22717668 -57.20277356 105.41652649 -71.58203125 97.59765625 C-85.87613124 89.30606088 -95.53096452 76.92362983 -99.90625 60.9140625 C-103.73093449 43.45508606 -101.92677027 26.09104572 -92.5703125 10.515625 C-91.11041946 8.45362918 -89.5486793 6.5801307 -87.875 4.6875 C-86.86373047 3.48480469 -86.86373047 3.48480469 -85.83203125 2.2578125 C-76.17412444 -8.38691561 -62.21288265 -15.03216033 -47.87109375 -16.2109375 C-29.78850136 -16.82390673 -13.61038323 -12.6664864 0 0 Z " fill="#010101" transform="translate(1023.875,94.3125)"/>
<path d="M0 0 C0 0.66 0 1.32 0 2 C0.58523438 2.25265625 1.17046875 2.5053125 1.7734375 2.765625 C6.75616086 5.5279769 10.30577797 10.30972028 12.4375 15.5 C12.623125 16.325 12.80875 17.15 13 18 C13.66 18 14.32 18 15 18 C15.2784375 17.01 15.2784375 17.01 15.5625 16 C20.14147496 6.44387834 29.36230592 -0.65433172 39.17578125 -4.24609375 C50.80919748 -7.35155617 64.76516873 -7.06563343 75.41015625 -1.01171875 C79.37837838 1.51351351 79.37837838 1.51351351 81 3 C81 3.66 81 4.32 81 5 C81.99 5.33 82.98 5.66 84 6 C99.16852507 24.75829203 97.33131379 50.48672539 97.20581055 73.25170898 C97.18731659 76.72191599 97.1853034 80.19185769 97.18554688 83.66210938 C97.18063764 85.90364812 97.17481194 88.14518508 97.16796875 90.38671875 C97.16685593 91.40666428 97.1657431 92.4266098 97.16459656 93.47746277 C97.15821671 94.45000504 97.15183685 95.4225473 97.14526367 96.42456055 C97.14145187 97.26278854 97.13764008 98.10101654 97.13371277 98.96464539 C96.94176617 103.32194046 96.43398754 107.66012458 96 112 C87.09 112 78.18 112 69 112 C68.95101562 107.61460937 68.90203125 103.22921875 68.8515625 98.7109375 C68.80690697 95.17545111 68.76041841 91.6399992 68.71270752 88.10455322 C68.66312831 84.39395675 68.61664611 80.68338539 68.578125 76.97265625 C68.5407739 73.38688512 68.49429283 69.80133012 68.44193649 66.21574783 C68.41486206 64.20773763 68.39682291 62.19961195 68.37905884 60.1914978 C68.56295162 41.93422615 68.56295162 41.93422615 61 26 C55.7150788 22.01988173 50.13280831 20.13456933 43.515625 20.51953125 C36.52665394 21.85438131 30.6020015 25.34185501 26.24609375 30.96875 C21.95064349 37.97073788 19.9051528 45.27730772 19.79467773 53.42089844 C19.77473251 54.72194519 19.75478729 56.02299194 19.73423767 57.36346436 C19.71725582 58.7787667 19.70037693 60.19407028 19.68359375 61.609375 C19.66301245 63.06097999 19.64201567 64.51257914 19.62062073 65.96417236 C19.56552149 69.77812972 19.51605885 73.59214007 19.46777344 77.40618896 C19.41746951 81.30078834 19.36182993 85.19531109 19.30664062 89.08984375 C19.19920772 96.72649755 19.09772999 104.36321521 19 112 C14.52084672 112.02886338 10.04171709 112.04675187 5.5625 112.0625 C4.28310547 112.07087891 3.00371094 112.07925781 1.68554688 112.08789062 C0.47060547 112.09111328 -0.74433594 112.09433594 -1.99609375 112.09765625 C-3.12200928 112.10289307 -4.2479248 112.10812988 -5.40795898 112.11352539 C-8 112 -8 112 -9 111 C-9.10811205 108.94707804 -9.14629778 106.8904518 -9.15771484 104.8347168 C-9.16279556 104.19060349 -9.16787628 103.54649017 -9.17311096 102.88285828 C-9.18384075 101.47782962 -9.19245062 100.0727836 -9.19923019 98.66773033 C-9.2110192 96.43373625 -9.23047936 94.1999355 -9.25234985 91.96601868 C-9.31391214 85.61177165 -9.36770268 79.25753679 -9.40136719 72.90307617 C-9.42250453 69.01786018 -9.4579734 65.13298438 -9.50212479 61.24796486 C-9.51615482 59.7758572 -9.52497738 58.3036892 -9.52817917 56.83151817 C-9.38090647 39.76869758 -9.38090647 39.76869758 -17.34375 25.3359375 C-22.27563047 21.3578641 -27.28435136 20.44773041 -33.44140625 20.64453125 C-40.35450073 21.60497644 -47.03281737 25.15332312 -51.3046875 30.69140625 C-60.62755814 45.22736136 -58.53794205 65.54156468 -58.66955566 81.98522949 C-58.69977571 85.37830319 -58.7461586 88.77115633 -58.79101562 92.1640625 C-58.87525267 98.77593782 -58.94387402 105.38782939 -59 112 C-62.37498158 112.02922646 -65.74993021 112.04687468 -69.125 112.0625 C-70.55199219 112.07506836 -70.55199219 112.07506836 -72.0078125 112.08789062 C-72.9359375 112.09111328 -73.8640625 112.09433594 -74.8203125 112.09765625 C-75.66867676 112.10289307 -76.51704102 112.10812988 -77.39111328 112.11352539 C-80 112 -80 112 -86 111 C-86 73.71 -86 36.42 -86 -2 C-77.42 -2 -68.84 -2 -60 -2 C-59.67 2.29 -59.34 6.58 -59 11 C-58.360625 10.13375 -57.72125 9.2675 -57.0625 8.375 C-50.88977605 1.00250717 -40.9136512 -4.55119075 -31.375 -5.8125 C-19.94367966 -6.50584602 -10.08889189 -5.68417818 0 0 Z " fill="#010101" transform="translate(511,84)"/>
<path d="M0 0 C5.12469426 4.9635886 9.0480266 9.02144226 11 16 C11.66 16 12.32 16 13 16 C17.39037551 28.11542556 21.38635049 39.98354276 19 53 C14.77909233 57.22090767 1.3741483 55.10929912 -4.48849106 55.11614132 C-6.85172084 55.11322591 -9.21490702 55.10554169 -11.578125 55.09765625 C-13.24249224 55.09578673 -14.90686004 55.09436536 -16.57122803 55.09336853 C-20.91120983 55.08958535 -25.25115714 55.0797919 -29.59112549 55.06866455 C-34.036006 55.05835918 -38.48089219 55.05385153 -42.92578125 55.04882812 C-51.61720317 55.03816505 -60.30859727 55.02114032 -69 55 C-68.53353186 56.61388061 -68.06243022 58.2264225 -67.58935547 59.83837891 C-67.32750458 60.73650299 -67.06565369 61.63462708 -66.79586792 62.55996704 C-64.82776217 68.5939367 -60.24418906 73.54650965 -55 77 C-45.29005056 81.68158277 -36.45292027 82.32160862 -26.22265625 78.90625 C-21.56252232 77.00616024 -19.439421 74.92800098 -17.2890625 70.38671875 C-15.30296324 67.57286457 -14.3222675 67.05870403 -10.87719727 66.43115234 C-6.96617883 66.31016382 -3.09350362 66.38951118 0.8125 66.5625 C2.18677001 66.59763805 3.56112589 66.62957276 4.93554688 66.65820312 C8.29254812 66.74065579 11.64518064 66.8557101 15 67 C16 69 16 69 15.1796875 71.57421875 C9.04117103 86.22211582 -0.81487494 96.71380604 -15.65625 103.15234375 C-21.04261641 105.23142199 -26.20426504 106.75337298 -32 107 C-32.95390625 107.0515625 -33.9078125 107.103125 -34.890625 107.15625 C-52.97342525 107.68038914 -68.46911995 102.08124045 -81.6875 89.75 C-93.99072948 76.77937835 -98.7020211 60.5956098 -98.24609375 43.09375 C-97.46229653 26.52872209 -90.71149827 12.18655242 -78.6875 0.8125 C-56.24867775 -18.17419575 -22.47616761 -19.82177358 0 0 Z M-62 20 C-62 20.66 -62 21.32 -62 22 C-62.66 22 -63.32 22 -64 22 C-64 22.99 -64 23.98 -64 25 C-64.66 25 -65.32 25 -66 25 C-66.66 27.64 -67.32 30.28 -68 33 C-39.29 32.505 -39.29 32.505 -10 32 C-11.15006955 25.09958271 -12.72242328 21.72819243 -18.05078125 17.29296875 C-31.51275273 7.73706153 -49.92700345 8.19017503 -62 20 Z " fill="#010101" transform="translate(712,92)"/>
<path d="M0 0 C1.11568359 -0.00128906 2.23136719 -0.00257812 3.38085938 -0.00390625 C5.14333008 0.00189453 5.14333008 0.00189453 6.94140625 0.0078125 C8.11251953 0.00394531 9.28363281 0.00007813 10.49023438 -0.00390625 C12.16569336 -0.00197266 12.16569336 -0.00197266 13.875 0 C14.9055249 0.00112793 15.9360498 0.00225586 16.99780273 0.00341797 C19.50390625 0.1328125 19.50390625 0.1328125 21.50390625 1.1328125 C21.50390625 12.0228125 21.50390625 22.9128125 21.50390625 34.1328125 C32.72390625 34.1328125 43.94390625 34.1328125 55.50390625 34.1328125 C55.50390625 42.0528125 55.50390625 49.9728125 55.50390625 58.1328125 C44.28390625 58.1328125 33.06390625 58.1328125 21.50390625 58.1328125 C21.60128893 64.76764834 21.70429791 71.40192369 21.82128906 78.03637695 C21.85936677 80.2892541 21.89425499 82.54218766 21.92578125 84.79516602 C21.97189582 88.04984586 22.02981002 91.30414433 22.08984375 94.55859375 C22.10139496 95.55176102 22.11294617 96.54492828 22.12484741 97.56819153 C21.96797009 109.77045902 21.96797009 109.77045902 27.00390625 120.2578125 C30.59215392 122.94899825 32.51067883 123.2856936 36.94921875 123.44921875 C37.91875488 123.48732666 38.88829102 123.52543457 39.88720703 123.56469727 C41.12196777 123.60780029 42.35672852 123.65090332 43.62890625 123.6953125 C47.54765625 123.8396875 51.46640625 123.9840625 55.50390625 124.1328125 C55.50390625 132.0528125 55.50390625 139.9728125 55.50390625 148.1328125 C15.56632325 148.91590236 15.56632325 148.91590236 4.50390625 139.1328125 C-3.79413833 130.83476792 -6.53672834 119.23258011 -6.72314453 107.85693359 C-6.72283215 105.54001493 -6.71178914 103.22307902 -6.69140625 100.90625 C-6.68857635 99.67742096 -6.68574646 98.44859192 -6.68283081 97.18252563 C-6.67171272 93.29085192 -6.64662351 89.39941565 -6.62109375 85.5078125 C-6.61105314 82.85547209 -6.60192919 80.20312805 -6.59375 77.55078125 C-6.57180078 71.07803471 -6.53732891 64.60546375 -6.49609375 58.1328125 C-14.08609375 58.1328125 -21.67609375 58.1328125 -29.49609375 58.1328125 C-29.49609375 50.2128125 -29.49609375 42.2928125 -29.49609375 34.1328125 C-21.90609375 34.1328125 -14.31609375 34.1328125 -6.49609375 34.1328125 C-6.50769531 31.76222656 -6.51929688 29.39164063 -6.53125 26.94921875 C-6.53904071 24.66235488 -6.54511739 22.37549246 -6.55102539 20.08862305 C-6.55606532 18.49486636 -6.56289725 16.90111431 -6.5715332 15.30737305 C-6.58361374 13.02130997 -6.5893253 10.73530783 -6.59375 8.44921875 C-6.59891129 7.73254532 -6.60407257 7.01587189 -6.60939026 6.27748108 C-6.60958638 4.56217578 -6.55801382 2.84699984 -6.49609375 1.1328125 C-4.75536171 -0.60791954 -2.3651774 0.00259157 0 0 Z " fill="#010101" transform="translate(752.49609375,47.8671875)"/>
<path d="M0 0 C2.47424128 2.2326786 3.82905706 4.34797941 5.234375 7.359375 C5.64429688 8.22949219 6.05421875 9.09960938 6.4765625 9.99609375 C7.10691406 11.35927734 7.10691406 11.35927734 7.75 12.75 C8.15476562 13.61238281 8.55953125 14.47476562 8.9765625 15.36328125 C9.39164063 16.24886719 9.80671875 17.13445313 10.234375 18.046875 C10.68514404 18.98055908 11.13591309 19.91424316 11.6003418 20.8762207 C13 24 13 24 14.28442383 27.73901367 C17.1568496 35.7093949 20.24928819 40.11852957 27.98046875 43.89453125 C31.01659511 45.28775664 34.09262449 46.55650144 37.1875 47.8125 C38.761765 48.49344303 40.33405694 49.17896654 41.90429688 49.86914062 C44.77038115 51.12224832 47.64486248 52.34784596 50.53588867 53.54223633 C53.0870705 54.61582197 55.55287176 55.71399516 58 57 C57 60 57 60 54.24365234 61.578125 C53.02939392 62.14618526 51.80970149 62.7027179 50.5859375 63.25 C49.93807281 63.54938477 49.29020813 63.84876953 48.62271118 64.15722656 C46.54449033 65.1146439 44.45994366 66.05732651 42.375 67 C40.99305995 67.63448173 39.61154407 68.2698882 38.23046875 68.90625 C27.48548801 73.8416943 27.48548801 73.8416943 23.32226562 75.19921875 C18.79007529 77.65582045 17.64089159 80.45835923 15.6328125 85.0625 C15.26775604 85.85019775 14.90269958 86.63789551 14.52658081 87.44946289 C13.37085261 89.9569612 12.24795663 92.47768147 11.125 95 C10.348435 96.69626667 9.5698097 98.39159172 8.7890625 100.0859375 C5.10545102 107.92672653 5.10545102 107.92672653 2 116 C-1 115 -1 115 -2.7265625 112.10546875 C-3.37080959 110.80508183 -4.00274252 109.49855152 -4.625 108.1875 C-4.96402344 107.49060059 -5.30304688 106.79370117 -5.65234375 106.07568359 C-8.5182822 100.13146671 -11.2704902 94.13285886 -14 88.125 C-14.39783691 87.25125732 -14.79567383 86.37751465 -15.20556641 85.47729492 C-15.75349854 84.25490112 -15.75349854 84.25490112 -16.3125 83.0078125 C-16.63863281 82.28223145 -16.96476562 81.55665039 -17.30078125 80.80908203 C-18 79 -18 79 -18 77 C-19.19625 76.649375 -20.3925 76.29875 -21.625 75.9375 C-26.43048674 74.34066899 -30.8243742 72.15859165 -35.32128906 69.84521484 C-42.39974699 66.22983249 -49.69373452 63.12176798 -57 60 C-57 59.01 -57 58.02 -57 57 C-55.47799865 56.21937466 -53.95507087 55.44052528 -52.42871094 54.66845703 C-51.02885134 53.9572112 -49.63381432 53.23641227 -48.24316406 52.50732422 C-44.05278242 50.35616535 -39.94968292 48.59489057 -35.4609375 47.15625 C-26.65449109 44.14429288 -19.89833169 41.44699766 -15.17578125 33.03515625 C-12.49472843 27.48798395 -10.2755412 21.78765717 -8.15478516 16.00634766 C-6.65687941 12.1067258 -4.81469202 8.49921035 -2.75 4.875 C-1.93789062 3.41707031 -1.93789062 3.41707031 -1.109375 1.9296875 C-0.74328125 1.29289063 -0.3771875 0.65609375 0 0 Z " fill="#1EBD62" transform="translate(1157,0)"/>
<path d="M0 0 C9.24 0 18.48 0 28 0 C28 51.15 28 102.3 28 155 C25.47381284 156.26309358 23.70352699 156.12940142 20.87890625 156.1328125 C19.35233398 156.13474609 19.35233398 156.13474609 17.79492188 156.13671875 C16.72822266 156.13285156 15.66152344 156.12898437 14.5625 156.125 C12.96825195 156.13080078 12.96825195 156.13080078 11.34179688 156.13671875 C9.81329102 156.13478516 9.81329102 156.13478516 8.25390625 156.1328125 C7.31877197 156.13168457 6.3836377 156.13055664 5.42016602 156.12939453 C3 156 3 156 0 155 C0 103.85 0 52.7 0 0 Z " fill="#010101" transform="translate(381,40)"/>
<path d="M0 0 C0.97646484 0.04833984 1.95292969 0.09667969 2.95898438 0.14648438 C4.47008789 0.2305957 4.47008789 0.2305957 6.01171875 0.31640625 C7.55182617 0.3947168 7.55182617 0.3947168 9.12304688 0.47460938 C11.64872729 0.60383023 14.1740181 0.74062652 16.69921875 0.87890625 C17.02921875 5.82890625 17.35921875 10.77890625 17.69921875 15.87890625 C18.33859375 14.84765625 18.97796875 13.81640625 19.63671875 12.75390625 C23.991937 6.65412614 30.46147085 2.65326862 37.69921875 0.87890625 C41.49531617 0.64792195 45.27299048 0.69014371 49.07421875 0.75390625 C50.60755859 0.76744141 50.60755859 0.76744141 52.171875 0.78125 C54.68123397 0.80470195 57.19010211 0.8375227 59.69921875 0.87890625 C59.81469198 8.94920178 59.59963186 16.85558228 58.69921875 24.87890625 C57.64863281 24.91628906 56.59804688 24.95367187 55.515625 24.9921875 C45.21768096 25.43997754 36.01061848 26.07867011 27.69921875 32.87890625 C21.22467846 39.94371802 19.59035323 47.64621301 19.12109375 57.015625 C19.07976318 57.80175171 19.03843262 58.58787842 18.99584961 59.39782715 C18.5734395 68.22514903 18.62319929 77.04435874 18.69921875 85.87890625 C18.86680378 105.70581106 18.86680378 105.70581106 17.69921875 113.87890625 C15.92472281 115.65340219 13.34904614 115.00920697 10.94921875 115.01171875 C9.78390625 115.01300781 8.61859375 115.01429688 7.41796875 115.015625 C6.19078125 115.01175781 4.96359375 115.00789063 3.69921875 115.00390625 C1.8584375 115.00970703 1.8584375 115.00970703 -0.01953125 115.015625 C-1.18484375 115.01433594 -2.35015625 115.01304687 -3.55078125 115.01171875 C-4.6284375 115.01059082 -5.70609375 115.00946289 -6.81640625 115.00830078 C-9.30078125 114.87890625 -9.30078125 114.87890625 -10.30078125 113.87890625 C-10.39643248 112.41141665 -10.42266434 110.93933741 -10.42103577 109.46873474 C-10.42241043 108.51656067 -10.4237851 107.5643866 -10.42520142 106.58335876 C-10.42160614 105.53032059 -10.41801086 104.47728241 -10.41430664 103.39233398 C-10.41445267 102.29003448 -10.41459869 101.18773499 -10.41474915 100.05203247 C-10.41404946 96.38883533 -10.40625449 92.72568831 -10.3984375 89.0625 C-10.39657352 86.53044157 -10.39514952 83.99838277 -10.39414978 81.46632385 C-10.39071471 75.47042376 -10.38282394 69.47454536 -10.37280029 63.47865397 C-10.36163802 56.65409567 -10.35612842 49.82953653 -10.35110486 43.00497139 C-10.34064129 28.96293961 -10.32304255 14.92092392 -10.30078125 0.87890625 C-6.72969504 0.11737374 -3.65274988 -0.19224999 0 0 Z " fill="#010101" transform="translate(824.30078125,81.12109375)"/>
<path d="M0 0 C9.24 0 18.48 0 28 0 C28.02254783 14.71609884 28.04097964 29.43218701 28.05181217 44.14829922 C28.05697493 50.98078974 28.06401723 57.81326879 28.07543945 64.64575195 C28.08644707 71.23335305 28.09227623 77.82094531 28.09487724 84.40855598 C28.096732 86.92808279 28.10035357 89.44760891 28.10573006 91.96713066 C28.11293676 95.48257765 28.1139911 98.99797461 28.11352539 102.51342773 C28.11712067 103.56646591 28.12071594 104.61950409 28.12442017 105.70445251 C28.1230455 106.65662659 28.12167084 107.60880066 28.12025452 108.58982849 C28.12117631 109.42220756 28.1220981 110.25458662 28.12304783 111.11218929 C28 113 28 113 27 114 C25.08541718 114.09971786 23.16717683 114.13080589 21.25 114.1328125 C20.0846875 114.13410156 18.919375 114.13539063 17.71875 114.13671875 C16.4915625 114.13285156 15.264375 114.12898438 14 114.125 C12.15921875 114.13080078 12.15921875 114.13080078 10.28125 114.13671875 C9.1159375 114.13542969 7.950625 114.13414062 6.75 114.1328125 C5.67234375 114.13168457 4.5946875 114.13055664 3.484375 114.12939453 C1 114 1 114 0 113 C-0.09565123 111.5325104 -0.12188309 110.06043116 -0.12025452 108.58982849 C-0.12162918 107.63765442 -0.12300385 106.68548035 -0.12442017 105.70445251 C-0.12082489 104.65141434 -0.11722961 103.59837616 -0.11352539 102.51342773 C-0.11367142 101.41112823 -0.11381744 100.30882874 -0.1139679 99.17312622 C-0.11326821 95.50992908 -0.10547324 91.84678206 -0.09765625 88.18359375 C-0.09579227 85.65153532 -0.09436827 83.11947652 -0.09336853 80.5874176 C-0.08993346 74.59151751 -0.08204269 68.59563911 -0.07201904 62.59974772 C-0.06085677 55.77518942 -0.05534717 48.95063028 -0.05032361 42.12606514 C-0.03986004 28.08403152 -0.02151501 14.04202081 0 0 Z " fill="#010101" transform="translate(887,82)"/>
<path d="M0 0 C4.38871051 2.75092032 6.76090456 4.76230472 8.29296875 9.828125 C9.0546961 15.51634875 8.44529983 19.92449888 5.29296875 24.828125 C1.86608388 28.88735172 -2.64006345 29.84183558 -7.70703125 30.828125 C-13.33723021 31.09528734 -17.36225954 29.38293822 -21.70703125 25.828125 C-25.32728909 22.03578909 -26.2756975 19.62577337 -26.26953125 14.390625 C-26.03914935 7.36000489 -26.03914935 7.36000489 -23.58203125 4.203125 C-16.67990582 -1.49863079 -8.57807516 -3.71345245 0 0 Z " fill="#020101" transform="translate(909.70703125,35.171875)"/>
<path d="M0 0 C16.8929385 7.29840547 16.8929385 7.29840547 24 11 C23 14 23 14 19.83984375 15.60546875 C18.54361378 16.14390274 17.24255932 16.67083429 15.9375 17.1875 C15.27427734 17.46013672 14.61105469 17.73277344 13.92773438 18.01367188 C12.28915183 18.6856086 10.64506597 19.34409628 9 20 C10 17 10 17 12 15.9375 C12.66 15.628125 13.32 15.31875 14 15 C14.33 14.34 14.66 13.68 15 13 C16.65 13 18.3 13 20 13 C20 12.34 20 11.68 20 11 C18.741875 10.731875 17.48375 10.46375 16.1875 10.1875 C12.8468847 9.366998 11.32880718 8.55059834 9 6 C6.39388923 5.27802838 6.39388923 5.27802838 4 5 C4 4.34 4 3.68 4 3 C2.68 2.67 1.36 2.34 0 2 C0 1.34 0 0.68 0 0 Z " fill="#2B9C5D" transform="translate(1191,46)"/>
<path d="M0 0 C0 0.66 0 1.32 0 2 C-4.95 4.475 -4.95 4.475 -10 7 C-8.9957244 12.02137798 -8.60239038 12.86243419 -5 16 C-9.47238653 14.58192622 -13.71146306 12.88695626 -18 11 C-18 10.01 -18 9.02 -18 8 C-15.3773768 6.66180502 -12.75213401 5.3292849 -10.125 4 C-9.00544922 3.42765625 -9.00544922 3.42765625 -7.86328125 2.84375 C-7.14785156 2.4828125 -6.43242188 2.121875 -5.6953125 1.75 C-5.03547363 1.41484375 -4.37563477 1.0796875 -3.69580078 0.734375 C-2 0 -2 0 0 0 Z " fill="#25A761" transform="translate(1118,49)"/>
<path d="M0 0 C0.99 0.33 1.98 0.66 3 1 C-5.57446809 18.34042553 -5.57446809 18.34042553 -10 26 C-10.66 25.67 -11.32 25.34 -12 25 C-8.04 16.75 -4.08 8.5 0 0 Z " fill="#27A35D" transform="translate(1150,14)"/>
<path d="M0 0 C-3.06117568 2.62386487 -3.73173127 3 -8 3 C-8 3.66 -8 4.32 -8 5 C-9.24420647 5.5345256 -10.49570936 6.05208611 -11.75 6.5625 C-12.44609375 6.85253906 -13.1421875 7.14257812 -13.859375 7.44140625 C-16.32267287 8.08420113 -17.59358157 7.6897518 -20 7 C-17.04738074 5.63311253 -14.08709966 4.28370462 -11.125 2.9375 C-10.28324219 2.54755859 -9.44148438 2.15761719 -8.57421875 1.75585938 C-7.76855469 1.39169922 -6.96289062 1.02753906 -6.1328125 0.65234375 C-5.38918457 0.31195068 -4.64555664 -0.02844238 -3.87939453 -0.37915039 C-2 -1 -2 -1 0 0 Z " fill="#26A25C" transform="translate(1138,41)"/>
<path d="M0 0 C0.66 0 1.32 0 2 0 C1.87890625 1.828125 1.87890625 1.828125 1 4 C-1.72265625 5.484375 -1.72265625 5.484375 -5.0625 6.75 C-6.16722656 7.17796875 -7.27195312 7.6059375 -8.41015625 8.046875 C-9.26480469 8.36140625 -10.11945313 8.6759375 -11 9 C-10 6 -10 6 -8 4.9375 C-7.34 4.628125 -6.68 4.31875 -6 4 C-5.67 3.34 -5.34 2.68 -5 2 C-3.35 2 -1.7 2 0 2 C0 1.34 0 0.68 0 0 Z " fill="#22A75A" transform="translate(1211,57)"/>
<path d="M0 0 C-0.99 1.98 -1.98 3.96 -3 6 C-4.65 5.67 -6.3 5.34 -8 5 C-6.19780722 -0.02039417 -5.34443412 -1.60333024 0 0 Z " fill="#24B567" transform="translate(1177,77)"/>
<path d="M0 0 C0.99 3.3 1.98 6.6 3 10 C2.34 10 1.68 10 1 10 C0.79375 9.05125 0.5875 8.1025 0.375 7.125 C-0.70833333 3.70833333 -0.70833333 3.70833333 -4.125 2.625 C-5.07375 2.41875 -6.0225 2.2125 -7 2 C-7 1.67 -7 1.34 -7 1 C-2.25 0 -2.25 0 0 0 Z " fill="#29A968" transform="translate(1140,73)"/>
<path d="M0 0 C0.33 0.66 0.66 1.32 1 2 C3.2931383 2.84228734 5.61494957 3.46932939 7.96875 4.12109375 C8.6390625 4.41113281 9.309375 4.70117188 10 5 C10.33 5.99 10.66 6.98 11 8 C6.0276578 6.50829734 1.58154261 4.39542583 -3 2 C-2.01 1.34 -1.02 0.68 0 0 Z " fill="#2CA766" transform="translate(1117,64)"/>
<path d="M0 0 C0.433125 0.598125 0.86625 1.19625 1.3125 1.8125 C3.86718499 5.12412869 6.61497565 7.54877547 10 10 C6.46322336 10.32152515 4.6037896 10.4131192 1.625 8.375 C-0.4131192 5.3962104 -0.32152515 3.53677664 0 0 Z " fill="#2AAB65" transform="translate(1173,33)"/>
<path d="M0 0 C0.66 0 1.32 0 2 0 C1.40138258 2.35171131 0.73075648 4.6859378 0 7 C-0.99 7.495 -0.99 7.495 -2 8 C-2.33 6.35 -2.66 4.7 -3 3 C-2.01 2.67 -1.02 2.34 0 2 C0 1.34 0 0.68 0 0 Z " fill="#2BAC6A" transform="translate(1165,96)"/>
<path d="M0 0 C2.02907167 3.3146667 2.12742133 5.4315979 1.625 9.25 C1.51414062 10.14203125 1.40328125 11.0340625 1.2890625 11.953125 C1.19367187 12.62859375 1.09828125 13.3040625 1 14 C0.67 14 0.34 14 0 14 C-0.19456705 12.04235617 -0.38044247 10.08384679 -0.5625 8.125 C-0.66691406 7.03445312 -0.77132812 5.94390625 -0.87890625 4.8203125 C-1 2 -1 2 0 0 Z " fill="#0B070E" transform="translate(606,132)"/>
<path d="M0 0 C0.66 0.33 1.32 0.66 2 1 C1.01 1.33 0.02 1.66 -1 2 C-0.34 3.32 0.32 4.64 1 6 C-0.65 5.67 -2.3 5.34 -4 5 C-4 4.01 -4 3.02 -4 2 C-2.125 0.9375 -2.125 0.9375 0 0 Z " fill="#2C9760" transform="translate(1104,55)"/>
<path d="" fill="#FFFFFF" transform="translate(0,0)"/>
<path d="" fill="#FFFFFF" transform="translate(0,0)"/>
<path d="" fill="#FFFFFF" transform="translate(0,0)"/>
<path d="" fill="#FFFFFF" transform="translate(0,0)"/>
<path d="" fill="#FFFFFF" transform="translate(0,0)"/>
<path d="" fill="#FFFFFF" transform="translate(0,0)"/>
<path d="" fill="#FFFFFF" transform="translate(0,0)"/>
<path d="" fill="#FFFFFF" transform="translate(0,0)"/>
<path d="" fill="#FFFFFF" transform="translate(0,0)"/>
<path d="" fill="#FFFFFF" transform="translate(0,0)"/>
<path d="" fill="#FFFFFF" transform="translate(0,0)"/>
<path d="" fill="#FFFFFF" transform="translate(0,0)"/>
<path d="" fill="#FFFFFF" transform="translate(0,0)"/>
<path d="" fill="#FFFFFF" transform="translate(0,0)"/>
<path d="" fill="#FFFFFF" transform="translate(0,0)"/>
<path d="" fill="#FFFFFF" transform="translate(0,0)"/>
<path d="" fill="#FFFFFF" transform="translate(0,0)"/>
<path d="" fill="#FFFFFF" transform="translate(0,0)"/>
<path d="" fill="#FFFFFF" transform="translate(0,0)"/>
<path d="" fill="#FFFFFF" transform="translate(0,0)"/>
<path d="" fill="#FFFFFF" transform="translate(0,0)"/>
<path d="" fill="#FFFFFF" transform="translate(0,0)"/>
<path d="" fill="#FFFFFF" transform="translate(0,0)"/>
<path d="" fill="#FFFFFF" transform="translate(0,0)"/>
<path d="" fill="#FFFFFF" transform="translate(0,0)"/>
<path d="" fill="#FFFFFF" transform="translate(0,0)"/>
<path d="" fill="#FFFFFF" transform="translate(0,0)"/>
<path d="" fill="#FFFF00" transform="translate(0,0)"/>
<path d="" fill="#FFFFFF" transform="translate(0,0)"/>
<path d="" fill="#FFFFFF" transform="translate(0,0)"/>
<path d="" fill="#FFFFFF" transform="translate(0,0)"/>
<path d="" fill="#FFFFFF" transform="translate(0,0)"/>
<path d="" fill="#FFFFFF" transform="translate(0,0)"/>
<path d="" fill="#FFFFFF" transform="translate(0,0)"/>
<path d="" fill="#FFFFFF" transform="translate(0,0)"/>
<path d="" fill="#FFFFFF" transform="translate(0,0)"/>
<path d="" fill="#FFFFFF" transform="translate(0,0)"/>
<path d="" fill="#FFFFFF" transform="translate(0,0)"/>
<path d="" fill="#FFFFFF" transform="translate(0,0)"/>
<path d="" fill="#FFFFFF" transform="translate(0,0)"/>
<path d="" fill="#FFFFFF" transform="translate(0,0)"/>
<path d="" fill="#FFFFFF" transform="translate(0,0)"/>
<path d="" fill="#FFFFFF" transform="translate(0,0)"/>
<path d="" fill="#FFFFFF" transform="translate(0,0)"/>
<path d="" fill="#FFFFFF" transform="translate(0,0)"/>
<path d="" fill="#FFFFFF" transform="translate(0,0)"/>
<path d="" fill="#FFFFFF" transform="translate(0,0)"/>
<path d="" fill="#FFFFFF" transform="translate(0,0)"/>
<path d="" fill="#FFFFFF" transform="translate(0,0)"/>
<path d="" fill="#FFFFFF" transform="translate(0,0)"/>
<path d="" fill="#FFFFFF" transform="translate(0,0)"/>
<path d="" fill="#FFFFFF" transform="translate(0,0)"/>
<path d="" fill="#FFFFFF" transform="translate(0,0)"/>
<path d="" fill="#FFFFFF" transform="translate(0,0)"/>
<path d="" fill="#FFFFFF" transform="translate(0,0)"/>
<path d="" fill="#FFFFFF" transform="translate(0,0)"/>
<path d="" fill="#FFFFFF" transform="translate(0,0)"/>
<path d="" fill="#FFFFFF" transform="translate(0,0)"/>
</svg>
