<?xml version="1.0" encoding="UTF-8"?>
<svg id="Capa_2" data-name="Capa 2" xmlns="http://www.w3.org/2000/svg" viewBox="0 0 590.64 98.03">
  <defs>
    <style>
      .cls-1 {
        fill: #3a4;
      }

      .cls-1, .cls-2 {
        stroke-width: 0px;
      }

      .cls-2 {
        fill: #1f2432;
      }
    </style>
  </defs>
  <g id="Capa_1-2" data-name="Capa 1">
    <g>
      <g>
        <path class="cls-2" d="M0,75.24h10.62c.48,9.17,5.79,13.62,17.29,13.62,9.46,0,14.49-2.9,14.49-8.79,0-6.37-5.79-7.44-16.51-9.95-16.32-3.86-24.05-7.05-24.05-17.96,0-11.69,8.98-17.29,24.24-17.29,17.09,0,25.69,7.24,25.88,21.73h-10.53c-.58-9.08-5.12-12.84-15.74-12.84-9.17,0-13.42,2.61-13.42,8.02,0,5.99,5.31,7.15,17.29,10.04,15.55,3.77,23.27,6.66,23.27,17.58,0,11.78-8.98,18.64-25.79,18.64S.1,90.6,0,75.24Z"/>
        <path class="cls-2" d="M100.82,82.19c-.97,3.96-3.57,7.92-11.78,7.92s-12.13-3.89-13.39-10.71l-5.37-2v-.71h41.16c1.26-15.55-3.86-29.46-22.11-29.46-19.7,0-24.73,12.07-24.73,25.3s4.93,25.5,24.82,25.5c15.55,0,21.35-7.44,22.21-15.84h-10.81ZM88.36,55.25c9.37,0,12.55,6.27,12.46,13.03v.2h-25.4c.48-7.25,3.28-13.23,12.94-13.23Z"/>
        <path class="cls-2" d="M144.95,47.23c-17.38,0-21.63,7.92-21.63,18.16l10.04-.1c0-6.18,2.51-9.85,11.69-9.85,9.94,0,12.55,3.19,12.84,11.3l-15.55,1.54c-14.1,1.45-20.57,5.51-20.57,14.59,0,10.43,8.5,15.16,19.12,15.16,7.55,0,13.74-2.31,17.39-5.07l2.17-5.84h.72v10.23h6.86v-28.1c0-13.33-2.9-22.02-23.08-22.02ZM157.89,76.11c0,8.59-4.44,13.81-14.39,13.81-7.24,0-11.1-2.61-11.1-7.15,0-3.86,2.89-5.7,11.49-6.66l14-1.55v1.55Z"/>
        <path class="cls-2" d="M180.68,29.08h10.33v68.28h-10.33V29.08Z"/>
        <path class="cls-2" d="M263.73,35.54l-17.96,42.11c-.24.57-.53,1.3-.83,2.09v9.6h-.72l-22.21-53.8h-15.74v61.81h10.53v-48.96l20.76,48.96h10.62l20.77-48.96v48.96h10.62v-61.81h-15.84Z"/>
        <path class="cls-2" d="M329.2,82.19c-.96,3.96-3.57,7.92-11.78,7.92s-12.08-3.85-13.36-10.6l-5.68-2.11v-.71h41.45c1.25-15.55-3.87-29.46-22.12-29.46-19.7,0-24.72,12.07-24.72,25.3s4.92,25.5,24.82,25.5c15.55,0,21.34-7.44,22.21-15.84h-10.82ZM316.75,55.25c9.36,0,12.55,6.27,12.45,13.03v.2h-25.39c.48-7.25,3.28-13.23,12.94-13.23Z"/>
        <path class="cls-2" d="M375.56,56.21v-8.3h-13.14v-12.37h-10.04v9.39l6.07,2.26v.71h-6.07s-7.05,0-7.05,0v8.3h7.05v26.95c0,11.68,6.86,15.54,23.18,14.58v-8.31c-10.72.49-12.85-1.64-12.85-6.27v-26.95h12.85Z"/>
        <path class="cls-2" d="M394.11,54.54l-1.36,3.65h-.71v-10.28h-5.96v49.44h10.34v-26.07c0-11.59,5.02-16.52,15.16-15.07v-8.98c-8.69-.57-14.44,1.12-17.47,7.31Z"/>
        <path class="cls-2" d="M425.97,27.82c4.44,0,7.34,1.26,7.34,6.28s-2.9,6.18-7.34,6.18-7.63-1.26-7.63-6.18,2.99-6.28,7.63-6.28ZM420.75,47.91h10.24v49.45h-10.24v-49.45Z"/>
        <path class="cls-2" d="M442.77,72.63c0-13.13,5.31-25.4,24.43-25.4,15.07,0,22.21,8.02,22.21,20.38h-10.53c-.68-7.63-3.77-11.98-11.98-11.98-10.62,0-13.62,7.34-13.62,16.9s2.9,16.61,13.81,16.61c8.21,0,11.11-4.06,11.78-11.2h10.53c0,12.17-6.86,20.09-22.02,20.09-19.51,0-24.63-12.26-24.63-25.4Z"/>
        <path class="cls-2" d="M498.78,79.78h10.14c0,6.66,4.54,10.04,13.52,10.04,7.05,0,11.78-2.41,11.78-6.28,0-4.54-5.7-5.79-14.2-7.44-10.62-2.03-20.28-4.54-20.28-13.81s7.15-15.06,21.63-15.06,21.73,6.08,21.73,17.67h-9.66c-.39-6.76-4.15-9.66-12.36-9.66s-11.11,2.22-11.11,6.18c0,4.35,5.5,5.31,13.71,6.95,11.4,2.22,20.67,4.15,20.67,14.68,0,8.98-8.69,14.97-21.73,14.97-16.03,0-23.85-5.99-23.85-18.25Z"/>
      </g>
      <polygon class="cls-1" points="566.92 54.44 566.92 23.72 536.2 23.72 536.2 34.44 556.2 34.44 556.2 54.44 566.92 54.44"/>
      <polygon class="cls-1" points="590.64 30.73 590.64 0 559.91 0 559.91 10.73 579.91 10.73 579.91 30.73 590.64 30.73"/>
    </g>
  </g>
</svg>